<svg viewBox="0 0 227 53" fill="none" xmlns="http://www.w3.org/2000/svg">
<path fill-rule="evenodd" clip-rule="evenodd" d="M41.3119 33.9902L37.2794 41.8224H31.1174V43.0016H27.7171V41.8224H19.3819V38.0945H17.1259V35.3035H19.3819V30.6626H16.8556V27.2938H19.3819V23.2306H16.6355V26.5517H13.2351V23.183H16.5853V19.2863H19.3819V15.5325H16.6355V18.8536H13.2351V15.4849H16.5853V11.5883H19.3819V11.4649H41.3119L37.2794 19.3404H25.6551V22.5404H40.331L36.2986 30.3726H25.6551V33.9945H41.3119V33.9902ZM31.8476 12.6636V14.0807H33.2753V12.6636H31.8476ZM22.44 32.9581V34.3731H23.8677V32.9581H22.44ZM14.6062 14.2581H15.5805V13.2932H14.6062V14.2581ZM9.30079 18.2413H10.6413V16.9129H9.30079V18.2413ZM7.09929 27.1294H8.80381V25.4396H7.09929V27.1294ZM8.68393 32.5146H9.65826V33.4796H8.68393V32.5146ZM6.62193 18.9358H8.32864V20.6256H6.62193V18.9358ZM9.90456 30.2169H11.9753V32.2701H9.90456V30.2169ZM10.9159 13.053V15.4676H13.3528V13.053H10.9159ZM28.4582 38.6527V40.7731H30.5986V38.6527H28.4582ZM21.008 22.813H21.9823V21.848H21.008V22.813ZM22.876 25.0264H24.2165V23.6979H22.876V25.0264ZM25.0491 27.19H26.7558V25.498H25.0491V27.19ZM21.991 29.8317H24.0639V27.7785H21.991V29.8317ZM27.9438 27.0558H30.3807V24.6413H27.9438V27.0558ZM20.9644 37.387V39.793H23.3926V37.387H20.9644ZM27.4468 14.732V17.4148H30.154V14.732H27.4468ZM23.4274 12.5056V15.4157H26.3635V12.5056H23.4274ZM22.6384 16.8545V18.1807H21.6641V19.1479H22.6384V18.1829H23.9789V16.8566H22.6384V16.8545ZM26.3003 35.5761V37.268H28.0048V35.5761H26.3003ZM9.88494 19.3772H12.7033V22.1683H9.88494V19.3772ZM7.64639 22.151H9.88059V24.3665H7.64639V22.151ZM10.4233 26.5625V29.3536H13.2395V26.5625H10.4233ZM14.0722 30.6669V33.4579H16.8905V30.6669H14.0722ZM11.086 34.3969V36.6103H13.3202V34.3969H11.086ZM14.8961 38.1075V40.323H17.1325V38.1075H14.8961ZM13.2439 40.3382V41.976H14.8961V40.3382H13.2439ZM18.5187 42.1924V44.4079H20.7529V42.1924H18.5187ZM24.8878 42.9973V45.7883H27.7062V42.9973H24.8878Z" fill="#007DC4"/>
<path fill-rule="evenodd" clip-rule="evenodd" d="M38.7006 39.0617H30.5965V38.6506H28.456V39.0617H27.7738V37.2594H28.0026V35.5674H27.7738V33.988H38.8139V38.8431L38.7028 39.0595L38.7006 39.0617ZM27.7716 30.3683V24.849H27.9394V27.0515H30.3763V24.849H38.8096V25.4872L36.2964 30.3683H27.7694H27.7716Z" fill="#6C8BC6"/>
<path fill-rule="evenodd" clip-rule="evenodd" d="M37.371 33.9902L32.3577 35.5393L31.695 33.9902H37.3732H37.371ZM30.1387 30.3683L28.7154 27.0515L30.3763 27.0515V24.6369H28.4582L35.2588 22.5361H40.3288L36.2964 30.3683H30.1365H30.1387ZM27.9394 25.2427L27.7716 24.849L27.9394 24.797V25.2427Z" fill="#00A551"/>
<path fill-rule="evenodd" clip-rule="evenodd" d="M33.2314 30.3683L29.951 27.0515H30.3782V24.6369H28.0699L31.019 22.5361L40.3288 22.5361L36.2964 30.3683L33.2271 30.3683H33.2314ZM27.9413 25.0199L27.7734 24.849L27.9413 24.7278V25.0199ZM35.5157 19.3361L37.7042 17.7783L37.9505 18.0271L37.2791 19.3361H35.5157Z" fill="#3C8376"/>
<path fill-rule="evenodd" clip-rule="evenodd" d="M36.8497 29.2975L30.3782 26.1256V24.6369L27.9413 24.6371V24.9335L27.7734 24.8513L29.3472 22.5384H40.3329L36.8519 29.2996L36.8497 29.2975ZM31.5225 19.3362L34.2537 15.3228L38.3145 17.3111L37.2769 19.3362H31.5225Z" fill="#9DCB3B"/>
<path fill-rule="evenodd" clip-rule="evenodd" d="M38.3276 26.4282L30.3782 25.2382V24.6346H27.9413V24.8726L27.7734 24.8466L28.253 22.5337H40.3329L38.3276 26.426V26.4282ZM28.9178 19.3359L29.3188 17.4103H30.1515V14.7275H29.8769L30.0251 14.0156L39.2953 15.4025L37.2813 19.3359H28.9178Z" fill="#F4EA31"/>
<path fill-rule="evenodd" clip-rule="evenodd" d="M38.7248 12.0381L39.3875 15.2229L37.2813 19.3359L26.6297 19.3359L25.8145 15.4111H26.3637V13.8901L31.85 13.0701V14.0805H33.2777V12.8559L38.7248 12.0402V12.0381ZM40.0915 23.0054L29.193 24.6346L27.9413 24.6346L27.9418 24.8228L27.7716 24.849L27.2923 22.5359H40.3313L40.0893 23.0054H40.0915ZM27.4449 14.7253V17.4081H30.1521V14.7253H27.4449Z" fill="#F4EA30"/>
<path fill-rule="evenodd" clip-rule="evenodd" d="M34.1428 11.4606L38.232 17.4732L37.2769 19.3362L25.6529 19.3361V21.7377L23.2291 18.1764H23.9724V16.8501H22.6318V17.3002L21.287 15.3226L23.4209 14.2776V15.4113H26.3569V12.8388L29.1666 11.4628H34.1385L34.1428 11.4606ZM32.4928 22.5361L28.2053 24.6369L27.9413 24.6371L27.9416 24.7667L27.7716 24.849L26.1978 22.5361H32.4928ZM31.8454 12.6636V14.0807H33.2731V12.6636H31.8454ZM27.4424 14.7276V17.4105H30.1496V14.7276H27.4424Z" fill="#F4EA30"/>
<path fill-rule="evenodd" clip-rule="evenodd" d="M29.8252 11.4607L31.8458 12.8995V14.0786H33.2735V13.9163L36.3883 16.134L33.2234 19.334H25.6555V22.534H30.0585L27.9812 24.6348H27.9398V24.6759L27.7698 24.8469L19.3779 18.8732V16.2163L24.0839 11.4585H29.8231L29.8252 11.4607ZM27.445 14.7277V17.4106L30.1515 17.4103V14.7275L27.445 14.7277ZM23.4256 12.5014V15.4114H26.3617V12.5014H23.4256ZM22.6366 16.8502V18.1765H21.6623V19.1436H22.6366V18.1786H23.9771V16.8524H22.6366V16.8502Z" fill="#FFF584"/>
<path fill-rule="evenodd" clip-rule="evenodd" d="M23.6188 11.4607L31.8472 14.0007V14.0786H32.0978L32.3572 14.1587L30.1383 19.334H25.6568V22.534H28.7651L27.7734 24.8466L24.2139 23.7478V23.6937H24.0395L21.1754 22.8088H21.9818V21.8438H21.0075V22.7568L16.5871 21.3916V19.2821H19.3836V15.5282H17.9734L19.7193 11.4585H23.621L23.6188 11.4607ZM16.5479 18.8494H16.6329V18.6481L16.5479 18.8494ZM27.4449 14.7253V17.4081H30.1521V14.7253H27.4449ZM23.4248 12.4992V15.4092H26.3609V12.4992H23.4248ZM22.6358 16.848V18.1743H21.6614V19.1414H22.6358L22.6366 18.1765H23.9763V16.8502H22.6366L22.6358 16.848Z" fill="#FACE0E"/>
<path fill-rule="evenodd" clip-rule="evenodd" d="M14.8067 13.4727H15.5805V14.256H14.8067V13.4727ZM16.5853 13.4727V15.4806H14.8067V18.8493L16.6329 18.8494L16.6333 15.5282H19.3797V19.282H16.5832V23.1787H14.8045V24.8468H16.6311V23.2263H19.3775V24.8468H22.8694V23.6936H24.2099V24.8468L27.7698 24.8469L27.7694 22.5339H25.6529V19.3339H27.7694V17.4083H27.4403V14.7255H27.7694V13.4706H26.3569V15.407H23.4209V13.4706H16.581L16.5853 13.4727ZM21.0058 22.8109V21.8459H21.9801V22.8109H21.0058ZM22.634 16.848H23.9745V18.1743H22.634V19.1392H21.6597V18.1721H22.634V16.8458V16.848Z" fill="#FACE0E"/>
<path fill-rule="evenodd" clip-rule="evenodd" d="M13.2351 17.2331L16.6355 16.1837V18.8515H13.2351V17.2331ZM18.752 15.5303H19.3841V19.2842H16.5875V23.1808H13.2613L14.7064 26.5496H16.6355V23.2284H19.3819V27.2917H16.8556V28.2199L25.0469 25.6906V25.4959H25.6791L27.7716 24.8511L26.7798 22.5382H25.6551V19.9181L23.7239 15.4135H23.4252V14.7147L23.1877 14.1629L18.752 15.5325V15.5303ZM12.7033 21.8805L11.6309 19.3794H12.7033V21.8805ZM21.008 22.813V21.848H21.9823V22.813H21.008ZM22.876 25.0264V23.6979H24.2165V25.0264H22.876ZM22.6366 16.8524H23.9771V18.1786H22.6366V19.1436H21.6623V18.1765H22.6366V16.8502V16.8524Z" fill="#F26E21"/>
<path fill-rule="evenodd" clip-rule="evenodd" d="M9.2245 23.2068L9.88277 22.7395V23.8732L9.2245 23.209V23.2068ZM10.6805 22.1704L12.7033 20.7295V22.1704H10.6805ZM15.3429 18.8515L16.6355 17.9319V18.8515H15.3429ZM19.3819 16.3655V19.2842H16.5853V23.1808H13.2351V26.5496L16.6355 26.5496V23.2284H19.3819V27.2917H16.8556L16.8556 30.6604H19.3819V30.8205L21.9888 28.9641V27.7742H23.6628L25.0469 26.7875V25.4937H26.7537V25.5738L27.7734 24.8466L22.1305 19.1392H21.6641V18.6676L19.3841 16.3633L19.3819 16.3655ZM16.8905 30.9611L16.6006 30.6669H16.8905V30.9611ZM13.2417 27.27L12.542 26.5625H13.2417V27.27ZM21.008 22.8109V21.8459H21.9823V22.8109H21.008ZM22.876 25.0242V23.6958H24.2165V25.0242H22.876Z" fill="#EF4B23"/>
<path fill-rule="evenodd" clip-rule="evenodd" d="M10.8309 32.2658L11.6658 30.2125H11.9753V32.2658H10.8309ZM12.0167 29.3536L13.1523 26.5625L13.2417 26.5625V29.3536H12.0167ZM13.2351 26.5496L16.6355 26.5496V23.2284H19.3819V27.2917H16.8556L16.8556 30.6604H19.3819V35.3013H17.1259V38.0924H19.3819V41.8203H22.4226L23.2509 39.7843H20.9622V37.3784H23.3904V39.4425L25.6551 33.8712V30.364H27.0828L27.7716 28.6677L25.9559 27.1792H25.0469V26.4349L23.3184 25.0177H22.8738V24.6542L16.5853 19.5027V23.1765H14.5277L13.2351 26.3527V26.5496ZM20.7529 44.1656L18.5187 42.3352V42.1902H20.7529V44.1656ZM16.0579 40.3187L14.8961 39.3667V38.1032H17.1325V40.3187H16.0579ZM11.5306 36.6081L11.0881 36.2447V34.3926H13.3223V36.606H11.5306V36.6081ZM22.4422 32.956H23.8699V34.371H22.4422V32.956ZM21.991 29.8274V27.7742H24.0639V29.8274H21.991ZM14.0743 30.6647H16.8927V33.4558H14.0743V30.6647Z" fill="#DA1374"/>
<path fill-rule="evenodd" clip-rule="evenodd" d="M13.2246 29.3536L13.242 29.2692L13.2417 29.3536L13.2246 29.3536ZM13.8066 26.5495L14.5063 23.1808L16.5853 23.1808L16.5857 23.1743L16.9519 23.2284L16.6355 23.2284V26.5496L13.8066 26.5495ZM19.3823 23.5919L19.3819 27.2917H16.8556L16.8556 30.6604H19.3819L19.3823 34.7626L25.5225 35.6821L25.8734 33.988H25.6554V30.3661H26.6254L27.7719 24.8468L24.2125 24.3145V25.022H22.872V24.1155L19.3801 23.5919H19.3823ZM22.4404 32.956H23.8681V34.371H22.4404V32.956ZM25.0473 27.1856L25.0469 25.4937H26.7537L26.754 27.1856H25.0473ZM21.9892 29.8274L21.9888 27.7742L24.0621 27.7741V29.8274H21.9892ZM14.0725 30.6647H16.8909V33.4558H14.0725V30.6647Z" fill="#DA1374"/>
<path fill-rule="evenodd" clip-rule="evenodd" d="M15.9489 33.4579L15.3691 30.6669H16.8905V33.4579H15.9489ZM16.4044 26.5496L16.6355 26.5149L16.6355 26.5496L16.4044 26.5496ZM19.3819 26.1039V27.2938H16.8556V30.6626H19.3819V35.3035H17.1259V37.612L26.2981 36.2403V35.5696H28.0026V35.985L30.0232 35.6821L29.6723 33.988H25.6573V30.3661H28.9203L28.2315 27.0493H27.9438V25.6625L27.7734 24.8466L19.3841 26.1017L19.3819 26.1039ZM22.4404 32.956H23.8681V34.371H22.4404V32.956ZM25.0473 27.1856L25.0469 25.4937H26.7537L26.754 27.1856H25.0473ZM21.9892 29.8274L21.9888 27.7742L24.0621 27.7741V29.8274H21.9892Z" fill="#EC1C24"/>
<path fill-rule="evenodd" clip-rule="evenodd" d="M22.6449 40.0634L22.4553 39.7865H23.2116L22.6427 40.0634H22.6449ZM20.9622 37.5926L19.3819 35.2689L19.3819 30.6626H16.8556V30.1974L25.0469 26.1839L25.0473 27.1856H26.754L26.7537 25.4937L26.455 25.4937L27.7734 24.849L27.9438 25.0978V27.0515H29.2734L31.5316 30.3683H25.6594V33.9902H33.9968L34.2605 34.3775L23.3947 39.6999V37.3805H20.9665V37.5904L20.9622 37.5926ZM16.8905 31.6059V30.6669L16.2519 30.6669L16.8905 31.6059ZM22.4404 32.956V34.371H23.8681V32.956H22.4404ZM21.9892 29.8274H24.0621V27.7741L21.9888 27.7742L21.9892 29.8274ZM26.2959 35.5696V37.2615H28.0004V35.5696H26.2959Z" fill="#2E3191"/>
<path fill-rule="evenodd" clip-rule="evenodd" d="M27.704 43.3196L27.34 42.9951H27.704V43.3196ZM26.0213 41.8224H27.7171V43.0016L30.3131 43.0016L31.1174 41.9869L31.1174 41.8224H31.246L37.4538 33.9902H25.6551V30.3683H33.9837L30.2499 27.0515H27.9416V25.0004L27.7716 24.8511L26.7515 26.1385V27.1878H25.9188L24.0595 29.5353V29.8296H23.8263L19.1552 35.7254L21.021 37.3827H23.3904V39.4879L26.0213 41.8246V41.8224ZM22.4404 32.956H23.8681V34.371H22.4404V32.956ZM28.456 38.6506H30.5965V40.7709H28.456L28.456 38.6506ZM26.2981 35.5696H28.0026L28.0026 37.2615H26.2981V35.5696Z" fill="#2E3191"/>
<path fill-rule="evenodd" clip-rule="evenodd" d="M12.3985 6.03847C12.5119 5.96058 12.6274 5.88485 12.7407 5.80913L12.8214 5.75504C12.9739 5.65551 13.1287 5.55599 13.2856 5.46079L13.351 5.42184C13.4687 5.34828 13.5886 5.27688 13.7085 5.20548L13.715 5.20116C13.7804 5.16437 13.8437 5.12543 13.909 5.08865C14.0202 5.02374 14.1336 4.95883 14.2469 4.89609L14.3624 4.83118C14.491 4.76194 14.6196 4.69055 14.7504 4.62131C14.8093 4.59102 14.8681 4.56073 14.9248 4.53044C15.0338 4.47418 15.1428 4.41793 15.2517 4.36384C15.3302 4.3249 15.4087 4.28595 15.4893 4.24701C15.5874 4.19941 15.6855 4.15397 15.7836 4.10854C15.8533 4.07608 15.9253 4.04146 15.9972 4.00901C16.0931 3.96574 16.189 3.92247 16.2849 3.87919C16.3786 3.84025 16.4724 3.79698 16.5639 3.75803C16.6555 3.71909 16.747 3.68014 16.8386 3.64336C16.941 3.60225 17.0456 3.55682 17.1503 3.51787C17.2156 3.49191 17.281 3.46595 17.3464 3.44215C17.462 3.39671 17.5775 3.35344 17.693 3.31017C17.7693 3.28204 17.8456 3.25391 17.9219 3.22795C18.0374 3.18468 18.1551 3.14357 18.2728 3.10463C18.3382 3.08299 18.4036 3.06135 18.469 3.03972C18.6041 2.99428 18.7371 2.95101 18.8744 2.9099L19.0183 2.86447C19.1599 2.82119 19.3016 2.77792 19.4433 2.73898L19.5959 2.69354C19.7419 2.6546 19.888 2.61349 20.034 2.57671L20.1495 2.54642C20.313 2.50531 20.4765 2.46636 20.6421 2.42742L20.7468 2.40362C20.9081 2.36684 21.0672 2.33222 21.2285 2.29977L21.32 2.28029C21.49 2.24568 21.6601 2.21322 21.8301 2.18293L21.9129 2.16995C22.0938 2.1375 22.2747 2.1072 22.4557 2.08124L22.5123 2.07259C22.6932 2.04662 22.8742 2.02066 23.0572 1.99686L23.1008 1.99037C23.2905 1.96657 23.4801 1.94493 23.6697 1.92546L23.7264 1.91897C23.9204 1.8995 24.1122 1.88219 24.3084 1.86705H24.3302C24.5242 1.8519 24.7182 1.83892 24.9122 1.8281H24.9536C25.1498 1.81728 25.3459 1.80863 25.5421 1.8043H25.5857C25.7884 1.79781 25.9889 1.79565 26.1917 1.79565C39.6644 1.79565 50.5847 12.6483 50.5847 26.0345C50.5847 39.4207 39.6644 50.2711 26.1917 50.2711C12.7189 50.2711 1.8008 39.4142 1.8008 26.028C1.8008 25.8246 1.80298 25.6212 1.80952 25.4178V25.3724C1.81606 25.1842 1.8226 24.9981 1.83132 24.8099L1.83568 24.745C1.84439 24.5589 1.85747 24.3772 1.87055 24.1954L1.87491 24.1392C1.89017 23.9466 1.90761 23.7562 1.92504 23.5658V23.542C1.94902 23.343 1.97082 23.1461 1.99479 22.9513L1.99915 22.9189C2.02313 22.7328 2.04929 22.5467 2.07762 22.3607L2.08634 22.3066C2.11468 22.1292 2.14301 21.9496 2.17571 21.7743L2.18879 21.7051C2.22148 21.5299 2.25418 21.3546 2.28905 21.1815L2.29995 21.1209C2.33919 20.937 2.37842 20.7553 2.41984 20.5714L2.42637 20.5389C2.46997 20.3572 2.51356 20.1733 2.56152 19.9915L2.57677 19.931C2.62037 19.7644 2.66614 19.5978 2.71192 19.4312L2.73589 19.3425C2.78167 19.1823 2.82962 19.0244 2.87975 18.8665L2.90591 18.7799C2.95604 18.6198 3.00835 18.4619 3.06067 18.3061L3.08682 18.226C3.14568 18.0573 3.20453 17.8885 3.26556 17.7219L3.29826 17.6354C3.35493 17.4861 3.4116 17.3368 3.47045 17.1875L3.51623 17.0707C3.5729 16.93 3.62957 16.7916 3.68842 16.6509L3.73855 16.5319C3.79741 16.3956 3.85844 16.2593 3.91947 16.123L3.97396 16.004C4.03717 15.8655 4.10257 15.7271 4.16796 15.5886L4.23771 15.4436C4.3031 15.3073 4.37285 15.171 4.44042 15.0369C4.46222 14.9936 4.48401 14.9482 4.50799 14.9071C4.5712 14.7837 4.63659 14.6604 4.70416 14.5371L4.78263 14.3921C4.84802 14.2753 4.91341 14.1585 4.98098 14.0416C5.00932 13.9919 5.03766 13.9399 5.06599 13.8923C5.13138 13.782 5.19895 13.6673 5.26653 13.557C5.30576 13.4921 5.34499 13.4272 5.38641 13.3623C5.44962 13.2606 5.51283 13.1589 5.57822 13.0572C5.61964 12.9923 5.66323 12.9252 5.70683 12.8581C5.77658 12.7521 5.84633 12.6439 5.91826 12.5379C5.95313 12.486 5.99019 12.4319 6.02506 12.38C6.09481 12.2783 6.16674 12.1766 6.23649 12.0771C6.27573 12.0208 6.31496 11.9667 6.35638 11.9105C6.42395 11.8153 6.4937 11.7201 6.56563 11.6249C6.62012 11.5513 6.67461 11.4778 6.72911 11.4064C6.78796 11.3285 6.84681 11.2527 6.90566 11.177C6.96887 11.0948 7.03426 11.0126 7.09965 10.9325C7.15415 10.8633 7.21082 10.7941 7.26749 10.7248C7.3307 10.6469 7.39391 10.5712 7.45713 10.4955C8.88701 8.79273 10.5479 7.28903 12.392 6.02981L12.3985 6.03847ZM30.1195 51.7662C30.3396 51.7337 30.5576 51.6991 30.7756 51.6602V51.6494H30.841C31.2159 51.5823 31.5864 51.5066 31.9548 51.4243V51.4157H32.0006C32.1444 51.3832 32.2861 51.3486 32.4278 51.314V51.2967H32.4954C32.6305 51.2642 32.7635 51.2296 32.8986 51.195V51.1799H32.9553C33.0926 51.1431 33.2321 51.1063 33.3694 51.0673V51.0609H33.389C33.9819 50.8921 34.5639 50.706 35.1393 50.4983V50.4767H35.2025C35.3006 50.4421 35.3965 50.4031 35.4924 50.3663V50.3577H35.5121C35.7039 50.2863 35.8935 50.2106 36.081 50.1348V50.124H36.1093C36.3774 50.0158 36.6433 49.9033 36.9071 49.7865V49.7735H36.9376C37.0073 49.7432 37.0749 49.7108 37.1425 49.6783V49.6545H37.1904C37.2536 49.6264 37.3147 49.5961 37.3779 49.568V49.5377H37.4433C37.9817 49.2824 38.5113 49.0098 39.0279 48.7198L39.0323 48.7177C39.2285 48.6073 39.4246 48.4948 39.6186 48.3801V48.3672H39.6426C39.8322 48.2547 40.0219 48.1378 40.2093 48.021V48.0167H40.218C40.3336 47.9431 40.4491 47.8695 40.5646 47.7938V47.783H40.582C40.8153 47.6315 41.0441 47.4758 41.273 47.3157L41.2774 47.3135C41.4343 47.2032 41.5912 47.0906 41.746 46.9781V46.963H41.7678C41.9204 46.8505 42.0686 46.738 42.219 46.6233V46.6103H42.2343C42.6724 46.2728 43.0996 45.9201 43.5159 45.5566L43.6336 45.4528V45.4377H43.6511C43.6838 45.4074 43.7186 45.3792 43.7535 45.3489V45.3208H43.784L43.8712 45.2429V45.204H43.9126C44.4728 44.6934 45.009 44.159 45.5212 43.6029V43.564H45.5583L45.639 43.4753V43.4471H45.6651L45.7567 43.3433V43.3303H45.7697C46.1752 42.8781 46.5631 42.4129 46.9359 41.9326V41.924H46.9424C47.0601 41.7725 47.1756 41.6211 47.289 41.4674V41.4545H47.2977C47.5811 41.0737 47.8513 40.6842 48.1129 40.2883V40.2818H48.1173C48.235 40.1022 48.3527 39.9205 48.466 39.7387V39.6976H48.4922C48.5619 39.5829 48.6317 39.4683 48.7014 39.3536V39.345H48.7058C48.7428 39.2822 48.7821 39.2195 48.8191 39.1567V39.1113H48.8453C49.1265 38.631 49.3924 38.1398 49.6431 37.6422V37.5881H49.6692C49.6997 37.5275 49.7303 37.4669 49.7608 37.4064V37.3544H49.7869C49.8174 37.2895 49.848 37.2246 49.8785 37.1619V37.1208H49.8981C49.9308 37.0515 49.9635 36.9823 49.9962 36.9109V36.8849H50.0071C50.0419 36.807 50.079 36.7313 50.1139 36.6534C50.2795 36.2878 50.4365 35.9156 50.5847 35.5413V35.4829H50.6065C50.6806 35.2969 50.7504 35.1086 50.8201 34.9226V34.8988H50.8288C50.8659 34.7971 50.9029 34.6932 50.9378 34.5915V34.5482H50.9531C50.9879 34.4487 51.0206 34.3492 51.0555 34.2475V34.1956H51.0729C51.1492 33.9662 51.2212 33.7369 51.2909 33.5032V33.4924H51.2953C51.3345 33.3626 51.3737 33.2328 51.4108 33.103V33.0229H51.4326C51.4653 32.9061 51.498 32.7892 51.5285 32.6724V32.5534H51.5612C51.5917 32.4387 51.6179 32.3219 51.6462 32.2051V32.2007C51.7312 31.8524 51.8097 31.4997 51.8816 31.1471C51.923 30.9394 51.9623 30.7295 51.9993 30.5196V30.4439H52.0124C52.0495 30.2232 52.0843 30.0025 52.117 29.7797V29.6239H52.1388C52.2413 28.8948 52.3132 28.1548 52.3524 27.4084V26.8134H52.3764C52.3829 26.5667 52.3873 26.3179 52.3895 26.0691V25.9955C52.3895 25.7597 52.3851 25.526 52.3786 25.2902H52.3524V24.6541C52.3132 23.9206 52.2434 23.1937 52.1454 22.4775H52.117V22.2806C52.0865 22.0729 52.0538 21.8631 52.0189 21.6575H51.9993V21.5428C51.9296 21.1491 51.8511 20.7575 51.7661 20.3702V20.3615C51.7312 20.2079 51.6963 20.0543 51.6593 19.9007H51.6484V19.8574C51.6135 19.7146 51.5786 19.574 51.5416 19.4333H51.5307V19.3922C51.4936 19.2494 51.4544 19.1066 51.413 18.9638C51.2451 18.3667 51.0555 17.7825 50.8463 17.207H50.8223V17.1421C50.7874 17.0469 50.7504 16.9517 50.7155 16.8543H50.7046V16.8284C50.6326 16.6401 50.5607 16.454 50.4844 16.2701H50.4692V16.2312C50.3951 16.0473 50.3166 15.8655 50.2381 15.6838H50.2338V15.673C50.2011 15.5973 50.1684 15.5237 50.1357 15.448H50.1161V15.4047C49.7608 14.6171 49.3684 13.8491 48.939 13.1048C48.8714 12.9858 48.8017 12.869 48.7319 12.7543H48.7036V12.7045C48.6666 12.6418 48.6317 12.5812 48.5924 12.5185H48.5859V12.5055C48.5162 12.3908 48.4442 12.2783 48.3723 12.1658H48.3505V12.1312C48.0519 11.6638 47.7402 11.2073 47.4154 10.7594H47.4089V10.7486C47.2955 10.595 47.1822 10.4414 47.0667 10.2899H47.0558V10.2748C46.7528 9.88103 46.4389 9.49374 46.1163 9.11727H46.1141V9.11295C46.0814 9.07617 46.0509 9.03722 46.0182 9.00044H45.9964V8.97664C45.203 8.06793 44.3464 7.21547 43.4353 6.42359H43.4026V6.39546L43.3001 6.30676H43.2849V6.29377C43.056 6.09905 42.825 5.90865 42.5896 5.72042H42.5765V5.71176C42.4304 5.59709 42.2844 5.48242 42.1384 5.36992H42.1057V5.34395C41.9596 5.23361 41.8136 5.12543 41.6675 5.01725H41.6348V4.99345C41.4823 4.88311 41.3275 4.77276 41.1727 4.66675H41.1618V4.66025C40.9352 4.50231 40.7041 4.3487 40.4731 4.19941H40.4556V4.18859C40.3401 4.11286 40.2224 4.0393 40.1047 3.96574C40.0415 3.92679 39.9804 3.88785 39.9172 3.8489H39.8693V3.81861C39.7559 3.74938 39.6404 3.68231 39.5271 3.61523H39.5162V3.60874C39.453 3.57196 39.3897 3.53518 39.3265 3.4984H39.2786V3.47027C39.0127 3.31882 38.7446 3.1717 38.4743 3.0289H38.4525V3.01808C38.3849 2.98346 38.3173 2.94668 38.2498 2.91206H38.2171V2.89476L38.0209 2.79523H37.9817V2.77576C37.9163 2.7433 37.8487 2.71085 37.7833 2.6784H37.7463V2.65892C37.6787 2.62647 37.6133 2.59185 37.5457 2.5594H37.5108V2.54209C37.4389 2.50747 37.367 2.47502 37.2929 2.4404H37.2754V2.43175C37.197 2.39496 37.1207 2.35818 37.0422 2.32357C36.7741 2.2024 36.5016 2.08557 36.227 1.97306H36.2161V1.96873C36.0243 1.89084 35.8303 1.81296 35.6363 1.73939H35.6254V1.73507C35.5251 1.69612 35.4249 1.65934 35.3246 1.62256H35.2723V1.60309C35.1829 1.57063 35.0914 1.53818 34.9998 1.50572H34.9192V1.4776C34.4658 1.31965 34.0059 1.17253 33.5416 1.03839H33.5046V1.02757C33.3781 0.990786 33.2495 0.956169 33.1231 0.921551H33.0337V0.897751C32.916 0.865297 32.7983 0.835007 32.6784 0.804717H32.5607V0.77659C32.0681 0.655428 31.5712 0.547248 31.0698 0.454213H31.0284V0.445559C30.817 0.406614 30.6056 0.369833 30.3919 0.337379H30.2023V0.307088C29.9974 0.276798 29.7903 0.246507 29.5833 0.220544H29.4939V0.209726C29.1539 0.166454 28.8117 0.134 28.4673 0.10371H28.197V0.0799101C27.5409 0.0301473 26.8783 0.00634766 26.2091 0.00634766H26.1677C25.965 0.00634766 25.7623 0.0106749 25.5617 0.0150021H25.5072C25.2936 0.0214929 25.0822 0.0301473 24.8708 0.0409653H24.8424C24.6354 0.0517833 24.4283 0.0647649 24.2212 0.0799101L24.1754 0.0842373L23.9509 0.101546H23.9335C23.8071 0.112364 23.6828 0.123182 23.5564 0.136164L23.4997 0.142655C23.297 0.162127 23.0965 0.185927 22.896 0.209726L22.8633 0.214053C22.6627 0.240017 22.4622 0.26598 22.2617 0.29627L22.1788 0.309252C21.9827 0.339542 21.7887 0.371996 21.5947 0.40445L21.5315 0.415268C21.3484 0.447722 21.1653 0.48234 20.9822 0.519121L20.8928 0.53643C20.7075 0.575375 20.5223 0.61432 20.3392 0.657592L20.2302 0.681391C20.0667 0.720336 19.9032 0.759281 19.7397 0.800389L19.5981 0.837171C19.4346 0.878279 19.2733 0.923715 19.112 0.96915L18.9638 1.01026C18.809 1.05353 18.6543 1.09897 18.4995 1.14657C18.4428 1.16387 18.3861 1.18118 18.3295 1.19849C18.1856 1.24393 18.0418 1.29153 17.8979 1.33696C17.8412 1.35643 17.7867 1.37374 17.7322 1.39105C17.5884 1.44082 17.4445 1.49058 17.3007 1.5425C17.2309 1.56847 17.1612 1.59443 17.0914 1.61823C16.9672 1.66367 16.8451 1.71127 16.723 1.7567C16.6424 1.78916 16.5617 1.81945 16.4811 1.8519C16.359 1.8995 16.237 1.94926 16.1149 2.00119C16.043 2.03148 15.971 2.06177 15.9013 2.09206C15.7901 2.13966 15.6811 2.18726 15.5722 2.23486C15.4762 2.27597 15.3803 2.3214 15.2844 2.36467C15.182 2.41227 15.0795 2.45987 14.9771 2.50747C14.8812 2.55291 14.7875 2.59834 14.6937 2.64378C14.6131 2.68272 14.5346 2.72167 14.454 2.76278C14.3493 2.8147 14.2425 2.86879 14.1401 2.92288C14.0485 2.97048 13.9592 3.01808 13.8676 3.06568C13.7608 3.12193 13.654 3.18035 13.5472 3.23877C13.4818 3.27555 13.4142 3.31233 13.3489 3.34911C13.2442 3.40753 13.1374 3.46811 13.0328 3.52869C12.9522 3.57413 12.8715 3.62173 12.793 3.66932C12.6775 3.73856 12.5642 3.8078 12.4508 3.87703L12.2873 3.97872C12.1566 4.06094 12.0258 4.14315 11.8972 4.22753L11.7424 4.32922C11.6313 4.40495 11.5201 4.47851 11.4089 4.55207C11.3414 4.59751 11.276 4.64295 11.2106 4.69055C11.0144 4.82685 10.8204 4.96532 10.6286 5.10812V5.13625H10.5894C10.4433 5.24443 10.2995 5.35261 10.1556 5.46295V5.48675H10.1229L10.0379 5.55382V5.60358H9.9725C9.87659 5.67931 9.77851 5.7572 9.6826 5.83509V5.83942H9.67824L9.5649 5.93245V5.95842H9.53438L9.44719 6.02981V6.07525H9.3927C9.21179 6.22454 9.03305 6.37815 8.85649 6.53393V6.54475H8.84342C8.10232 7.19816 7.39609 7.89268 6.73346 8.62397V8.65426H6.70731L6.61576 8.75595V8.7711H6.60268L6.46754 8.92255C6.41741 8.98097 6.36727 9.03938 6.31714 9.09564C6.23431 9.19084 6.15366 9.28603 6.07302 9.38123C6.02288 9.44181 5.97275 9.50023 5.9248 9.56081C5.84415 9.65817 5.76568 9.75554 5.68721 9.85506C5.63272 9.9243 5.57604 9.99353 5.52155 10.0649C5.44744 10.158 5.37551 10.2532 5.30358 10.3484C5.24691 10.4219 5.19242 10.4955 5.13574 10.569C5.06381 10.6664 4.99188 10.7616 4.92213 10.859C4.86982 10.9304 4.81969 11.0018 4.76737 11.0753C4.6889 11.1878 4.60826 11.2982 4.53197 11.4129C4.49491 11.4648 4.46004 11.5189 4.42298 11.573C4.34451 11.6876 4.26822 11.8045 4.19193 11.9213L4.08949 12.0814C4.01102 12.2026 3.93473 12.3259 3.86062 12.4471C3.8301 12.4968 3.79959 12.5466 3.76907 12.5985C3.6906 12.7283 3.61431 12.8581 3.53802 12.988C3.50533 13.042 3.47263 13.0983 3.44212 13.1524C3.36365 13.2887 3.28736 13.425 3.21325 13.5635L3.1326 13.7128C3.05849 13.8512 2.98438 13.9875 2.91245 14.1282L2.84052 14.2688C2.77077 14.4051 2.70102 14.5436 2.63345 14.6821L2.5637 14.8227C2.49613 14.9655 2.42855 15.1061 2.36534 15.2468L2.30649 15.3766C2.23674 15.5302 2.16917 15.6838 2.1016 15.8396L2.06018 15.9348C1.98825 16.1014 1.9185 16.2723 1.85093 16.4432L1.80516 16.5579C1.74195 16.7202 1.67874 16.8824 1.61989 17.0447L1.58065 17.1507C1.5218 17.3108 1.46513 17.4709 1.41063 17.6332L1.37358 17.7457C1.31691 17.9123 1.26241 18.0789 1.2101 18.2477L1.18177 18.3364C1.12727 18.5116 1.07496 18.6869 1.02483 18.8621L1.00303 18.9379C0.948537 19.1283 0.896224 19.3187 0.846091 19.5112L0.830833 19.574C0.78288 19.76 0.737106 19.9439 0.693512 20.1322L0.676075 20.2057C0.63466 20.3875 0.593246 20.5714 0.556191 20.7553L0.540933 20.8332C0.503878 21.0192 0.466823 21.2053 0.434128 21.3914L0.421049 21.4606C0.386174 21.651 0.355658 21.8414 0.325143 22.034L0.314244 22.0967C0.283728 22.3044 0.253212 22.5121 0.227056 22.722V22.7285C0.2009 22.9384 0.174743 23.1482 0.152946 23.3581L0.146407 23.41C0.12679 23.6069 0.109352 23.806 0.0940943 24.005L0.0875551 24.0699C0.0722972 24.2668 0.0613987 24.4637 0.0505002 24.6649V24.7255C0.037422 24.9267 0.0308829 25.1279 0.0243438 25.3313V25.3832C0.0178047 25.5758 0.015625 25.7662 0.015625 25.9566V26.0366C0.015625 26.8545 0.0548596 27.6615 0.128969 28.4577H0.133329V28.5031C0.161665 28.8017 0.19436 29.0981 0.231415 29.3945H0.251033V29.5309C0.281549 29.7602 0.316424 29.9874 0.353479 30.2146H0.368737V30.3119C0.403612 30.5153 0.438487 30.7165 0.477722 30.9177H0.486441V30.9675C0.521316 31.1471 0.556191 31.3266 0.595426 31.5041H0.604144V31.543C0.63466 31.6858 0.665176 31.8286 0.700051 31.9714H0.721848V32.0623C0.752364 32.1878 0.78288 32.3154 0.815575 32.4409H0.841732V32.5426C0.874427 32.6659 0.907123 32.7871 0.941998 32.9082H0.959436V32.9753C0.996491 33.1095 1.03573 33.2436 1.07496 33.3777H1.07714V33.3864C1.18177 33.7391 1.29075 34.0874 1.41063 34.4336H1.43243V34.4942C1.46513 34.5915 1.5 34.6889 1.53488 34.7862H1.55013V34.8274C1.58719 34.9312 1.62642 35.0351 1.66348 35.1367H1.66784V35.1454C1.73977 35.338 1.81606 35.5305 1.89235 35.7209H1.90325V35.749C1.97954 35.9351 2.05583 36.1233 2.13647 36.3073H2.13865V36.3116C2.52228 37.1965 2.95168 38.0554 3.42686 38.8841H3.43558V38.8992C3.54456 39.0896 3.65791 39.28 3.77125 39.4683H3.78869V39.4986C3.90203 39.6846 4.01974 39.8707 4.13744 40.0546H4.1418V40.0633C4.21591 40.1779 4.2922 40.2926 4.36849 40.4051H4.37721V40.4181C4.4535 40.5306 4.52979 40.6453 4.60826 40.7556H4.61479V40.7643C4.7216 40.9201 4.83059 41.0737 4.94175 41.2251H4.97009V41.2641C5.04638 41.3679 5.12267 41.4739 5.20113 41.5778H5.20767V41.5864C5.23601 41.6232 5.26435 41.66 5.2905 41.6968H5.32538V41.7422C5.43436 41.885 5.54335 42.0257 5.65451 42.1663H5.67849V42.1966C6.05558 42.6682 6.44792 43.1291 6.85553 43.5726C6.8904 43.6137 6.92746 43.6505 6.96451 43.6895H6.97323V43.7003L7.0735 43.8063H7.09094V43.8258L7.18248 43.9231H7.20864V43.9513C7.50508 44.2607 7.81024 44.5657 8.11975 44.86H8.15027V44.8903C8.18079 44.9206 8.21348 44.9487 8.244 44.9768H8.26797V44.9984L8.37042 45.0936H8.38568V45.1066C8.42273 45.1412 8.45979 45.1759 8.49684 45.2105H8.50338V45.217C8.80854 45.4961 9.12242 45.7665 9.44065 46.0326H9.44719V46.037C9.63683 46.1927 9.82864 46.3485 10.0205 46.5H10.0357V46.513C10.1818 46.6276 10.3322 46.7401 10.4804 46.8526H10.5065V46.8721C10.6569 46.9846 10.8095 47.095 10.9621 47.2032H10.9773V47.214C11.4307 47.5363 11.8972 47.8457 12.3724 48.14H12.392V48.153C12.5794 48.2676 12.7669 48.3823 12.9565 48.4927H12.9805V48.5078C13.3205 48.7069 13.6649 48.8973 14.0158 49.079H14.042V49.092C14.1074 49.1266 14.1728 49.1612 14.2382 49.1958H14.2774V49.2153C14.3428 49.2478 14.4082 49.2802 14.4736 49.3127H14.5128V49.3321C14.5782 49.3646 14.6436 49.397 14.7112 49.4295H14.7504V49.449L14.9553 49.5463H14.9858V49.5615C15.0599 49.5961 15.134 49.6307 15.2081 49.6653H15.2212V49.6718C15.6659 49.8774 16.1193 50.0699 16.577 50.2517H16.6358V50.2733C16.8211 50.3447 17.0086 50.4161 17.196 50.4853H17.2244V50.4962C17.3268 50.5329 17.4293 50.5676 17.5295 50.6043H17.5775V50.6216C17.9197 50.7406 18.2641 50.851 18.6128 50.957H18.639V50.9657C18.9049 51.0457 19.173 51.1214 19.4433 51.1928H19.4651V51.1993C19.6111 51.2383 19.7572 51.275 19.9032 51.3097H19.9359V51.3183C20.0885 51.3551 20.2433 51.3919 20.398 51.4265H20.4067C20.786 51.513 21.1696 51.5931 21.5554 51.6602H21.7037V51.684C21.8933 51.7164 22.0851 51.7489 22.2769 51.777H22.4121V51.7965C22.6649 51.8333 22.9199 51.8657 23.1771 51.896H23.2382V51.9025C23.6545 51.9501 24.0708 51.9847 24.4937 52.0128H27.9158C28.6046 51.9674 29.786 51.8268 29.9604 51.803M13.3336 3.35128C13.229 3.40969 13.1222 3.47027 13.0175 3.53085L13.3336 3.35128Z" fill="url(#paint0_linear_248_7381)"/>
<path fill-rule="evenodd" clip-rule="evenodd" d="M73.9703 30.0589L71.5095 34.4618H60.5848V17.3889H73.9703L71.5095 21.8178H64.4145V23.6157H73.3731L70.91 28.0208H64.4145V30.0589H73.9703Z" fill="#007FC0"/>
<path fill-rule="evenodd" clip-rule="evenodd" d="M89.1326 30.0589L86.6543 34.4618H75.7645V17.3889H79.5768V30.0589H89.1326Z" fill="#007FC0"/>
<path fill-rule="evenodd" clip-rule="evenodd" d="M108.05 34.4511L106.426 25.6106L102.974 33.1507C102.518 34.1265 101.89 34.6133 101.093 34.6133C100.683 34.6133 100.284 34.4749 99.896 34.1957C99.5081 33.9166 99.2182 33.5705 99.0242 33.1507L95.5541 25.6106L93.9476 34.4511H89.743L92.9406 19.6023C93.0671 18.9986 93.3308 18.4923 93.7362 18.0834C94.1416 17.6723 94.6059 17.4689 95.129 17.4689C95.9377 17.4689 96.6396 18.1202 97.2325 19.4184L100.992 27.7482L104.77 19.4184C105.352 18.118 106.047 17.4689 106.856 17.4689C107.392 17.4689 107.859 17.6745 108.257 18.0834C108.656 18.4923 108.924 18.9986 109.062 19.6023L112.242 34.4511H108.05Z" fill="#007FC0"/>
<path fill-rule="evenodd" clip-rule="evenodd" d="M127.406 30.0589L124.945 34.4618H114.022V17.3889H127.406L124.945 21.8178H117.85V23.6157H126.808L124.345 28.0208H117.85V30.0589H127.406Z" fill="#007FC0"/>
<path fill-rule="evenodd" clip-rule="evenodd" d="M133.258 34.451L135.567 30.0373H140.711L137.515 23.9251L131.959 34.4489H127.223L135.12 19.3231C135.37 18.8212 135.719 18.3798 136.162 18.0012C136.652 17.5922 137.125 17.3889 137.581 17.3889C138.036 17.3889 138.52 17.5922 138.997 18.0012C139.42 18.3625 139.762 18.8039 140.024 19.3231L147.734 34.4489H133.254L133.258 34.451Z" fill="#007FC0"/>
<path fill-rule="evenodd" clip-rule="evenodd" d="M165.699 17.4343L163.238 21.8502H154.519C154.053 21.8502 153.817 22.0796 153.817 22.5361C153.817 22.9926 154.05 23.2219 154.519 23.2219H160.792C162.285 23.2219 163.532 23.7261 164.535 24.7343C165.572 25.8053 166.091 27.19 166.091 28.8906C166.091 30.5912 165.566 31.9369 164.517 32.9755C163.539 33.9685 162.294 34.464 160.79 34.464H149.508L151.971 30.0719H160.792C161.191 30.0719 161.551 29.9767 161.869 29.7885C162.279 29.5526 162.486 29.2303 162.486 28.8192C162.486 28.4081 162.281 28.0706 161.869 27.852C161.562 27.6941 161.202 27.6162 160.792 27.6162H154.519C153.128 27.6162 151.967 27.1748 151.032 26.2943C150.029 25.3509 149.528 24.0982 149.528 22.5382C149.528 20.9783 150.029 19.7039 151.032 18.7584C151.967 17.8778 153.128 17.4365 154.519 17.4365H165.699V17.4343Z" fill="#007FC0"/>
<path fill-rule="evenodd" clip-rule="evenodd" d="M184.023 26.714C184.023 31.8807 181.458 34.464 176.331 34.464H175.527C170.398 34.464 167.833 31.8807 167.833 26.714V17.4278H171.647V26.714C171.647 28.2566 172.138 29.2497 173.116 29.6911C173.642 29.9421 174.714 30.0697 176.331 30.0697C177.619 30.0697 178.535 29.8793 179.082 29.5029C179.823 29.0139 180.194 28.0857 180.194 26.714V17.4278H184.023V26.714Z" fill="#007FC0"/>
<path fill-rule="evenodd" clip-rule="evenodd" d="M204.175 34.4618H198.619L194.891 30.1758H189.627V34.4618H185.798V25.7469H196.43C197.08 25.7469 197.616 25.6127 198.039 25.3444C198.573 24.9983 198.841 24.4855 198.841 23.8061C198.841 22.4798 198.039 21.8178 196.43 21.8178H185.798L188.293 17.3889H196.073C198 17.3889 199.56 17.8951 200.757 18.9056C202.102 20.0587 202.775 21.7009 202.775 23.8321C202.775 25.0307 202.505 26.1168 201.962 27.0883C201.422 28.0598 200.672 28.804 199.715 29.3255L204.177 34.464L204.175 34.4618Z" fill="#007FC0"/>
<path fill-rule="evenodd" clip-rule="evenodd" d="M219.322 30.0589L216.859 34.4618H205.936V17.3889H219.322L216.859 21.8178H209.764V23.6157H218.723L216.262 28.0208H209.764V30.0589H219.322Z" fill="#007FC0"/>
<path fill-rule="evenodd" clip-rule="evenodd" d="M223.799 11.0517C224.322 11.0517 224.832 11.1837 225.329 11.4519C225.826 11.7159 226.214 12.0989 226.493 12.5943C226.77 13.0898 226.909 13.6069 226.909 14.1435C226.909 14.68 226.772 15.1885 226.497 15.6796C226.225 16.1729 225.841 16.5537 225.348 16.8263C224.854 17.0989 224.337 17.2331 223.799 17.2331C223.26 17.2331 222.741 17.0989 222.247 16.8263C221.754 16.5537 221.368 16.1729 221.094 15.6796C220.819 15.1885 220.682 14.6757 220.682 14.1435C220.682 13.6112 220.819 13.0898 221.1 12.5943C221.379 12.0989 221.769 11.7159 222.266 11.4519C222.763 11.1858 223.273 11.0517 223.799 11.0517ZM223.799 11.5623C223.361 11.5623 222.935 11.6748 222.521 11.8976C222.107 12.1183 221.782 12.4385 221.549 12.8518C221.316 13.265 221.198 13.6956 221.198 14.1435C221.198 14.5913 221.314 15.0154 221.543 15.4243C221.774 15.8332 222.094 16.1513 222.506 16.3785C222.92 16.6056 223.35 16.7203 223.801 16.7203C224.252 16.7203 224.679 16.6056 225.091 16.3785C225.505 16.1491 225.826 15.8332 226.052 15.4243C226.281 15.0176 226.395 14.5892 226.395 14.1435C226.395 13.6978 226.277 13.265 226.046 12.8518C225.813 12.4385 225.49 12.1205 225.074 11.8976C224.657 11.6748 224.232 11.5623 223.799 11.5623ZM222.43 15.8484H222.973V14.4399H223.291C223.48 14.4399 223.624 14.4767 223.725 14.5502C223.868 14.6541 224.058 14.9115 224.291 15.3248L224.588 15.8484H225.244L224.836 15.1971C224.64 14.8899 224.477 14.6692 224.341 14.5394C224.272 14.4702 224.176 14.4117 224.058 14.362C224.348 14.3404 224.581 14.2387 224.756 14.0591C224.932 13.8817 225.019 13.6675 225.019 13.4273C225.019 13.2542 224.967 13.0941 224.862 12.9405C224.756 12.7869 224.616 12.6809 224.439 12.6181C224.263 12.5575 223.977 12.5251 223.583 12.5251H222.43V15.8484ZM222.973 13.9769H223.629C223.942 13.9769 224.156 13.9314 224.272 13.8384C224.385 13.7454 224.444 13.622 224.444 13.4727C224.444 13.3754 224.415 13.2867 224.361 13.211C224.306 13.1331 224.23 13.0746 224.132 13.0379C224.034 13.0011 223.853 12.9794 223.587 12.9794H222.973V13.9769Z" fill="#007FC0"/>
<defs>
<linearGradient id="paint0_linear_248_7381" x1="-0.0504751" y1="25.9999" x2="226.919" y2="25.9999" gradientUnits="userSpaceOnUse">
<stop stop-color="#00A3E3"/>
<stop offset="0.39" stop-color="#ED3428"/>
<stop offset="0.76" stop-color="#FFF225"/>
<stop offset="1" stop-color="#00A551"/>
</linearGradient>
</defs>
</svg>
