<?xml version="1.0" encoding="UTF-8"?><svg id="a" xmlns="http://www.w3.org/2000/svg" width="400" height="260" viewBox="0 0 400 260"><path d="M97.71,152.23l1.91-11.56c-1.13,1.02-2.13,1.66-4.15,1.66h-8.83l1.45-8.94h7.72c1.82,0,2.38,.77,2.94,1.66l2.14-13.22c-1.13,1.02-2.13,1.66-4.15,1.66h-7.06l1.3-7.98h8.83c1.82,0,2.38,.76,2.94,1.66l1.87-11.56h-22.36c.36,.7,.76,1.53,.74,2.43-.01,.64-.07,1.34-.21,2.17l-6.01,37.03c-.56,3.45-1.23,3.83-2.11,4.98h23.06Z" fill="#e30613"/><path d="M104.27,146.48c-1.28,2.17-2.93,4.34-4.07,5.75h11.96c-.36-.7-.72-1.21-.7-2.23,.01-.77,.36-1.47,.83-2.36l5.93-10.66,2.32,10.66c.19,.89,.34,1.59,.33,2.36-.02,1.02-.52,1.53-1.11,2.23h12.46c-.85-.96-1.37-1.92-2.06-4.53l-5.13-19.28,9.76-17.04c1.45-2.49,2.64-4.34,3.74-5.75h-11.63c.36,.7,.72,1.21,.7,2.23-.02,.77-.36,1.6-.83,2.36l-4.99,8.49-1.78-8.49c-.19-.89-.34-1.79-.33-2.36,.02-1.02,.52-1.53,1.11-2.23h-12.46c.85,.96,1.37,1.98,2.06,4.53l4.82,17.94-10.95,18.39Z" fill="#e30613"/><path d="M157.59,152.23l1.91-11.56c-1.13,1.02-2.13,1.66-4.16,1.66h-8.83l1.45-8.94h7.72c1.82,0,2.38,.77,2.94,1.66l2.14-13.22c-1.13,1.02-2.13,1.66-4.15,1.66h-7.06l1.3-7.98h8.83c1.81,0,2.38,.76,2.94,1.66l1.87-11.56h-22.36c.36,.7,.76,1.53,.74,2.43-.01,.64-.06,1.34-.2,2.17l-6.01,37.03c-.56,3.45-1.22,3.83-2.11,4.98h23.06Z" fill="#e30613"/><path d="M177.69,115.52h4.21c2.27,0,3.7,.7,3.64,4.15-.06,3.25-1.73,6.25-5.52,6.25h-4l1.68-10.4Zm-14.25,31.73c-.56,3.45-1.23,3.83-2.11,4.98h11.76c-.36-.7-.8-1.47-.78-2.43,0-.38,.02-.96,.21-2.17l1.91-11.81h3.63l3.16,16.41h10.32c-.8-1.22-1.48-2.49-1.78-4.03l-2.83-14.17c4.71-2.56,7.77-7.72,7.93-16.02,.18-9.51-5.3-12.38-11.77-12.38h-14.19c.36,.7,.8,1.47,.78,2.42,0,.38-.02,1.09-.21,2.17l-6.01,37.03Z" fill="#e30613" fill-rule="evenodd"/><path d="M200.65,147.25c-.56,3.45-1.23,3.83-2.12,4.98h11.76c-.36-.7-.8-1.47-.78-2.43,0-.38,.02-.96,.2-2.17l5.18-32.11h5.07c1.78,0,2.63,.76,3.43,1.66l1.87-11.56h-26.16l-1.86,11.56c.88-.9,2.1-1.66,3.83-1.66h4.74l-5.17,31.73Z" fill="#e30613"/><path d="M222.46,147.25c-.56,3.45-1.23,3.83-2.11,4.98h11.76c-.36-.7-.8-1.47-.78-2.43,0-.38,.02-1.02,.21-2.17l2.33-14.62h9.12l-2.29,14.24c-.56,3.45-1.22,3.83-2.11,4.98h11.76c-.36-.7-.8-1.47-.78-2.43,0-.38,.02-1.02,.2-2.17l6.01-37.02c.56-3.38,1.19-3.83,2.07-4.98h-11.72c.36,.7,.8,1.47,.78,2.42,0,.38-.02,1.09-.2,2.17l-2.1,12.9h-9.12l2.05-12.51c.56-3.38,1.19-3.83,2.07-4.98h-11.72c.36,.7,.8,1.47,.78,2.42,0,.38-.02,1.09-.21,2.17l-6.01,37.03Z" fill="#e30613"/><path d="M276.95,152.23l1.91-11.56c-1.13,1.02-2.14,1.66-4.16,1.66h-8.83l1.45-8.94h7.71c1.82,0,2.38,.77,2.94,1.66l2.14-13.22c-1.13,1.02-2.13,1.66-4.16,1.66h-7.06l1.31-7.98h8.83c1.81,0,2.38,.76,2.94,1.66l1.87-11.56h-22.36c.36,.7,.75,1.53,.74,2.43-.01,.64-.07,1.34-.21,2.17l-6.01,37.03c-.56,3.45-1.23,3.83-2.11,4.98h23.06Z" fill="#e30613"/><path d="M295.95,115.52h4.21c2.27,0,3.7,.7,3.63,4.15-.06,3.25-1.73,6.25-5.52,6.25h-4l1.68-10.4Zm-14.25,31.73c-.56,3.45-1.23,3.83-2.11,4.98h11.76c-.36-.7-.8-1.47-.78-2.43,0-.38,.02-.96,.21-2.17l1.91-11.81h3.63l3.16,16.41h10.31c-.8-1.22-1.48-2.49-1.78-4.03l-2.83-14.17c4.71-2.56,7.78-7.72,7.93-16.02,.18-9.51-5.3-12.38-11.77-12.38h-14.19c.36,.7,.79,1.47,.78,2.42,0,.38-.02,1.09-.2,2.17l-6.01,37.03Z" fill="#e30613" fill-rule="evenodd"/><path d="M313.79,147.25c-.56,3.45-1.23,3.83-2.12,4.98h9.28c-.36-.7-.8-1.47-.78-2.43,0-.38,.01-.83,.21-2.17l3.98-27.64h.08l4.27,32.24h4.13l14.71-32.24,.08,.13-4.97,27.13c-.55,3.06-1.23,3.83-2.11,4.98h11.76c-.36-.7-.8-1.47-.78-2.43,0-.38,.02-1.02,.21-2.17l6.01-37.02c.56-3.38,1.19-3.83,2.07-4.98h-11.92l-13.07,28.09-3.64-28.09h-11.96c.36,.7,.8,1.47,.78,2.42,0,.38-.02,1.09-.21,2.17l-6.01,37.03Z" fill="#e30613"/><path d="M28.51,122.54s-.04,.85,.33,.2c1.08-1.91,4.9-4.96,14.4-3.96,3.99,.42,18.61,.99,18.61,.99,11.55,.55,12.45-3.76,12.45-3.76l2.2-11.84s.19-1.07-.58-.35c-1.28,1.22-4.34,2.77-11.56,2.42,0,0-14.62-.61-18.61-.98-13.88-1.31-14.87,4.79-14.95,4.93l-2.29,12.35Z" fill="#e30613"/><path d="M25.35,139.27s-.04,.85,.33,.19c1.08-1.91,4.9-4.96,14.4-3.96,3.99,.42,18.62,.98,18.62,.98,11.55,.55,12.44-3.76,12.44-3.76l2.2-11.84s.18-1.07-.58-.35c-1.28,1.22-4.34,2.77-11.56,2.43,0,0-14.62-.61-18.61-.99-13.88-1.3-14.87,4.79-14.95,4.94l-2.29,12.35Z" fill="#e30613"/><path d="M22.49,156s-.04,.85,.33,.19c1.08-1.91,4.9-4.96,14.4-3.96,3.99,.42,18.62,.98,18.62,.98,11.55,.55,12.44-3.76,12.44-3.76l2.2-11.84s.19-1.07-.58-.35c-1.28,1.22-4.34,2.77-11.56,2.43,0,0-14.62-.61-18.61-.98-13.88-1.31-14.87,4.79-14.95,4.93l-2.29,12.35Z" fill="#e30613"/><path d="M377.51,112.22c0,.99-.18,1.91-.55,2.77-.37,.86-.87,1.61-1.51,2.24-.64,.63-1.39,1.13-2.25,1.5-.87,.37-1.79,.55-2.78,.55s-1.97-.18-2.83-.53c-.86-.36-1.6-.84-2.22-1.46-.62-.62-1.1-1.36-1.45-2.21-.35-.86-.52-1.79-.52-2.82s.18-1.91,.55-2.76c.37-.85,.87-1.6,1.51-2.23,.64-.63,1.39-1.13,2.25-1.49,.86-.36,1.79-.54,2.79-.54s1.97,.17,2.83,.52c.86,.35,1.6,.83,2.22,1.45,.62,.62,1.11,1.36,1.45,2.21,.35,.86,.52,1.79,.52,2.8m-1.62,.11c0-.86-.14-1.63-.41-2.33-.27-.7-.65-1.3-1.13-1.8-.48-.5-1.05-.88-1.72-1.15-.66-.26-1.38-.4-2.15-.4-.83,0-1.58,.14-2.25,.43-.67,.29-1.24,.69-1.73,1.19-.48,.5-.85,1.09-1.11,1.76-.26,.67-.39,1.38-.39,2.14,0,.84,.13,1.62,.41,2.31,.27,.7,.64,1.3,1.13,1.8,.48,.5,1.05,.89,1.71,1.16,.67,.27,1.38,.41,2.15,.41,.83,0,1.58-.15,2.26-.44,.67-.3,1.25-.69,1.73-1.19,.48-.5,.84-1.08,1.1-1.75,.26-.67,.39-1.38,.39-2.14m-2.13,3.31s0,.09-.03,.13c-.02,.04-.06,.07-.13,.09-.07,.02-.18,.03-.31,.05-.13,.01-.31,.02-.55,.02-.2,0-.37,0-.49-.02s-.23-.03-.31-.06c-.08-.03-.14-.07-.18-.13-.04-.05-.07-.13-.09-.23l-.38-1.25c-.15-.44-.32-.76-.52-.93-.2-.18-.49-.26-.89-.26h-.49v2.53c0,.13-.05,.22-.16,.27-.1,.05-.34,.07-.71,.07s-.62-.02-.74-.07c-.12-.05-.18-.14-.18-.27v-6.48c0-.26,.07-.47,.2-.62,.13-.15,.33-.23,.59-.23h2.07c.48,0,.91,.04,1.28,.13,.37,.08,.68,.22,.94,.4,.26,.18,.46,.41,.59,.68,.13,.27,.2,.59,.2,.97,0,.58-.16,1.03-.47,1.35-.31,.32-.73,.54-1.27,.68,.29,.09,.56,.26,.81,.49,.25,.23,.47,.57,.65,1.03l.43,1.16c.08,.28,.13,.45,.13,.52m-2.24-5c0-.13-.02-.26-.05-.38-.04-.12-.11-.22-.21-.32-.1-.09-.24-.16-.41-.21-.17-.05-.38-.07-.64-.07h-.83v2.02h.79c.51,0,.86-.1,1.05-.29,.19-.19,.29-.44,.29-.76" fill="#e30613"/></svg>