<svg width="546" height="56" viewBox="0 0 546 56" fill="none" xmlns="http://www.w3.org/2000/svg">
<path d="M84.1445 5.09155H121.061V12.3267H93.2464V23.1795H119.69V30.4147H93.2464V42.3875H122.432L121.312 49.6227H84.1445V5.09155Z" fill="#333333"/>
<path d="M176.882 49.6226H165.784L151.565 31.9723L137.532 49.6226H127.117L145.887 26.488L128.488 5.0979H139.586L151.745 20.6883L164.342 5.0979H174.757L157.545 26.0503L176.875 49.6226H176.882Z" fill="#333333"/>
<path d="M181.805 5.09155H218.721V12.3267H190.907V23.1795H217.35V30.4147H190.907V42.3875H220.092L218.972 49.6227H181.805V5.09155Z" fill="#333333"/>
<path d="M226.832 5.09155H248.473C260.736 5.09155 266.87 9.7455 266.87 19.0598C266.87 22.1367 266.162 24.6536 264.752 26.604C263.336 28.5608 261.264 30.0735 258.515 31.1549L269.554 49.6162H259.39L249.722 32.9637H235.625V49.6162H226.832V5.09155ZM247.784 25.7994C251.112 25.7994 253.597 25.2458 255.238 24.1451C256.88 23.0443 257.704 21.3321 257.704 19.0019C257.704 16.6717 256.931 14.8629 255.399 13.8266C253.861 12.7902 251.363 12.2688 247.913 12.2688H235.625V25.7994H247.784Z" fill="#333333"/>
<path d="M289.26 12.8288H271.609V5.09155H316.076V12.8224H298.49V49.6162H289.26V12.8288Z" fill="#333333"/>
<path d="M322.312 5.09155H331.543V22.5551H356.802V5.09155H366.033V49.6162H356.802V30.6593H331.543V49.6162H322.312V5.09155Z" fill="#333333"/>
<path d="M374.512 5.09155H411.428V12.3267H383.614V23.1795H410.057V30.4147H383.614V42.3875H412.799L411.679 49.6227H374.512V5.09155Z" fill="#333333"/>
<path d="M419.723 5.09155H441.364C453.626 5.09155 459.761 9.7455 459.761 19.0598C459.761 22.1367 459.053 24.6536 457.643 26.604C456.227 28.5608 454.154 30.0735 451.406 31.1549L462.445 49.6162H452.281L442.613 32.9637H428.516V49.6162H419.723V5.09155ZM440.675 25.7994C444.003 25.7994 446.488 25.2458 448.129 24.1451C449.771 23.0443 450.594 21.3321 450.594 19.0019C450.594 16.6717 449.822 14.8629 448.284 13.8266C446.745 12.7902 444.248 12.2688 440.797 12.2688H428.509V25.7994H440.669H440.675Z" fill="#333333"/>
<path d="M468.678 5.09155H479.467L495.868 39.8256L512.205 5.09155H522.743V49.6162H514.072V17.7531L499.228 49.6227H492.057L477.214 18.0685V49.6227H468.672V5.09155H468.678Z" fill="#333333"/>
<path d="M8.98185 18.6286C8.98185 18.6286 8.93679 19.5362 9.36163 18.841C10.6168 16.7876 15.0712 13.5176 26.1557 14.6119C30.8097 15.0689 48.3054 15.7062 48.3054 15.7062C61.7781 16.3177 62.8144 11.6895 62.8144 11.6895L65.3506 0.643622C65.3506 0.643622 65.5695 -0.508599 64.6747 0.270277C63.1813 1.57699 59.6152 3.23773 51.2021 2.85795C51.2021 2.85795 33.7063 2.18206 29.0524 1.76366C12.8569 0.334647 11.7111 6.8875 11.6275 7.04199L8.98185 18.635V18.6286Z" fill="#DE2318"/>
<path d="M4.98575 37.0771C4.98575 37.0771 4.9407 37.9847 5.36554 37.2895C6.62075 35.2361 11.0752 31.9661 22.1597 33.0604C26.8136 33.5174 44.3093 34.1547 44.3093 34.1547C57.782 34.7662 58.8183 30.138 58.8183 30.138L61.3545 19.0921C61.3545 19.0921 61.5734 17.9399 60.6786 18.7188C59.1852 20.0255 55.6191 21.6862 47.206 21.3064C47.206 21.3064 29.7102 20.6305 25.0563 20.2121C8.86726 18.7831 7.72148 25.336 7.63136 25.4905L4.98575 37.0835V37.0771Z" fill="#DE2318"/>
<path d="M0.997474 55.5256C0.997474 55.5256 0.952415 56.4332 1.37726 55.738C2.63247 53.6846 7.08687 50.4146 18.1714 51.5089C22.8253 51.9659 40.3211 52.6032 40.3211 52.6032C53.7937 53.2147 54.83 48.5865 54.83 48.5865L57.3662 37.5406C57.3662 37.5406 57.5851 36.3884 56.6903 37.1672C55.197 38.474 51.6309 40.1347 43.2177 39.7549C43.2177 39.7549 25.722 39.079 21.068 38.6606C4.87898 37.2316 3.7332 43.7845 3.64308 43.939L0.997474 55.5256Z" fill="#DE2318"/>
<path d="M533.656 20.0963C532.478 19.4269 531.551 18.4871 530.888 17.2705C530.219 16.0539 529.891 14.6313 529.891 13.0028C529.891 11.3742 530.238 9.92588 530.927 8.71573C531.616 7.50557 532.556 6.57221 533.753 5.90276C534.95 5.23975 536.283 4.90503 537.763 4.90503C539.34 4.90503 540.711 5.23975 541.883 5.90276C543.054 6.57221 543.968 7.50557 544.638 8.71573C545.301 9.91945 545.635 11.3549 545.635 13.0028C545.635 14.6506 545.294 16.0539 544.599 17.2705C543.91 18.4871 542.977 19.4333 541.793 20.0963C540.615 20.7593 539.269 21.0941 537.769 21.0941C536.27 21.0941 534.854 20.7593 533.669 20.0963M532.008 13.0028C532.008 14.9467 532.53 16.4659 533.579 17.5473C534.628 18.6287 536.012 19.1694 537.737 19.1694C539.462 19.1694 540.891 18.6287 541.947 17.5473C543.009 16.4594 543.537 14.9467 543.537 13.0028C543.537 11.0588 543.009 9.50748 541.947 8.41963C540.891 7.33821 539.488 6.79107 537.737 6.79107C535.986 6.79107 534.628 7.33821 533.579 8.41963C532.53 9.50748 532.008 11.033 532.008 13.0028ZM540.325 9.73277C540.769 10.2091 540.988 10.7949 540.988 11.4836C540.988 12.52 540.608 13.2345 539.842 13.6272L541.394 16.7298H539.179L537.885 14.0713H536.662V16.7298H534.628V9.00539H537.731C539.012 9.00539 539.874 9.24356 540.319 9.72634M538.748 10.8914C538.587 10.7176 538.214 10.634 537.621 10.634H536.662V12.4427H537.769C538.336 12.4427 538.684 12.3526 538.806 12.166C538.928 11.9793 538.993 11.7669 538.993 11.5223C538.993 11.2777 538.915 11.0652 538.754 10.8914" fill="#4D4D4E"/>
</svg>
